#!OML:ASF E:\Mandelcareful walks\Project 1\Capture day 1\Session 1\Subject1.ASF
:FULLY-SPECIFIED
:DEGREES
160
root 6.71691 15.5019 0.348381 -151.158 -78.263 156.505
lowerback 23.1497 0.452597 -0.384833
upperback 8.43882 -0.367886 -2.07498
thorax -3.67064 -0.467098 -1.89877
lowerneck -29.1504 1.97512 -0.013403
upperneck 25.5065 2.69013 0.0482923
head 13.4491 1.13265 0.539544
rclavicle -1.80894e-014 -1.74931e-014
rhumerus 24.9533 35.5012 -74.8881
rradius 116.735
rwrist -62.8057
rhand 3.2821 -23.7918
rfingers 7.12502
rthumb 28.7301 -51.6016
lclavicle -1.80894e-014 -1.74931e-014
lhumerus -7.8882 -23.5898 81.1974
lradius 56.1351
lwrist 21.6081
lhand -24.1267 -12.3388
lfingers 7.12502
lthumb 2.35504 17.628
rfemur -32.42 -9.22091 3.20812
rtibia 52.8751
rfoot -21.1183 -3.51383
rtoes -9.26961
lfemur -31.6239 17.5063 -12.152
ltibia 55.2307
lfoot -20.8648 2.69427
ltoes -8.70806
161
root 6.72231 15.4868 0.331217 -151.655 -78.5275 157.067
lowerback 23.2421 0.448949 -0.214167
upperback 8.20575 -0.315397 -2.06336
thorax -3.96862 -0.43116 -1.99764
lowerneck -28.889 1.97503 -0.123173
upperneck 25.5242 2.6769 0.228196
head 13.4006 1.14215 0.623211
rclavicle -5.14852e-014 -4.06515e-014
rhumerus 26.952 36.0624 -73.7501
rradius 118.136
rwrist -63.5663
rhand 2.65482 -23.6381
rfingers 7.12502
rthumb 28.1307 -51.548
lclavicle -5.14852e-014 -4.06515e-014
lhumerus -8.45429 -23.1777 81.3599
lradius 55.7974
lwrist 21.4474
lhand -24.1808 -12.3973
lfingers 7.12502
lthumb 2.30271 17.5701
rfemur -32.5553 -9.11203 3.49377
rtibia 53.1274
rfoot -21.2315 -3.73079
rtoes -9.06068
lfemur -31.8644 17.5318 -11.8581
ltibia 55.3864
lfoot -20.7907 2.49817
ltoes -8.66419
162
root 6.72599 15.4745 0.319079 -151.769 -78.7863 157.258
lowerback 23.3502 0.364192 -0.261003
upperback 7.98387 -0.409814 -1.95345
thorax -4.26692 -0.471407 -1.82779
lowerneck -28.9081 2.10328 -0.176175
upperneck 25.6918 2.94016 0.0478372
head 13.4759 1.21993 0.613368
rclavicle -7.15625e-015 2.20651e-014
rhumerus 29.071 36.9085 -72.3802
rradius 119.264
rwrist -64.0863
rhand 2.16381 -23.3551
rfingers 7.12502
rthumb 27.6612 -51.3413
lclavicle -7.15625e-015 2.20651e-014
lhumerus -9.07761 -22.3333 81.6386
lradius 55.4574
lwrist 21.2861
lhand -24.3335 -12.2731
lfingers 7.12502
lthumb 2.15523 17.6958
rfemur -32.6783 -9.08961 3.68041
rtibia 53.3623
rfoot -21.2687 -3.92533
rtoes -9.39554
lfemur -32.1155 17.4467 -11.6686
ltibia 55.5062
lfoot -20.6914 2.39725
ltoes -8.70611
163
root 6.71406 15.4689 0.312347 -151.117 -78.9575 156.532
lowerback 23.3265 0.392984 -0.318558
upperback 7.96821 -0.382009 -1.96078
thorax -4.27127 -0.456818 -1.81012
lowerneck -29.2718 2.17696 0.0359159
upperneck 25.8786 3.07561 -0.325364
head 13.6368 1.24003 0.462755
rclavicle -2.4699e-014 5.06901e-015
rhumerus 31.1355 37.2447 -70.9727
rradius 120.181
rwrist -64.0449
rhand 2.08766 -23.0377
rfingers 7.12502
rthumb 27.5884 -51.0355
lclavicle -2.4699e-014 5.06901e-015
lhumerus -9.46489 -21.9106 81.7908
lradius 55.3365
lwrist 21.2609
lhand -24.2951 -12.1513
lfingers 7.12502
lthumb 2.1924 17.8171
rfemur -32.5541 -9.2083 3.60165
rtibia 53.5411
rfoot -21.3199 -4.03513
rtoes -10.0858
lfemur -32.0829 17.2574 -11.6952
ltibia 55.5453
lfoot -20.6935 2.41202
ltoes -9.00601
164
root 6.69592 15.4723 0.30392 -150.057 -79.0614 155.356
lowerback 23.1887 0.522292 -0.493453
upperback 8.00207 -0.252986 -2.00273
thorax -4.16188 -0.394383 -1.78886
lowerneck -29.6175 2.10839 0.15324
upperneck 26.0021 2.97029 -0.449965
head 13.7612 1.18548 0.377735
rclavicle -1.59028e-014 1.37161e-014
rhumerus 32.7312 37.1787 -69.8555
rradius 121.019
rwrist -64.5613
rhand 2.15902 -23.2176
rfingers 7.12502
rthumb 27.6567 -51.2045
lclavicle -1.59028e-014 1.37161e-014
lhumerus -9.75656 -21.6826 81.9283
lradius 55.255
lwrist 21.2166
lhand -23.9728 -11.8837
lfingers 7.12502
lthumb 2.50358 18.0814
rfemur -32.3576 -9.35864 3.41253
rtibia 53.6645
rfoot -21.3678 -4.07534
rtoes -10.1768
lfemur -31.9022 17.0963 -11.8224
ltibia 55.5137
lfoot -20.7438 2.40516
ltoes -9.12779
165
root 6.68102 15.4751 0.294817 -148.984 -79.1906 154.242
lowerback 23.063 0.626541 -0.662103
upperback 7.99741 -0.153703 -2.07536
thorax -4.10164 -0.345002 -1.79618
lowerneck -29.7207 1.97217 -0.18738
upperneck 25.8264 2.73707 0.161903
head 13.6885 1.14703 0.632457
rclavicle 2.28105e-014 -4.47266e-015
rhumerus 34.0142 37.1819 -68.9843
rradius 121.58
rwrist -64.8923
rhand 2.17384 -23.0761
rfingers 7.12502
rthumb 27.6708 -51.0607
lclavicle 2.28105e-014 -4.47266e-015
lhumerus -9.99948 -21.3804 81.9735
lradius 55.0907
lwrist 21.0141
lhand -23.9945 -11.8928
lfingers 7.12502
lthumb 2.48264 18.0725
rfemur -32.2319 -9.47083 3.26501
rtibia 53.7505
rfoot -21.3943 -4.1604
rtoes -10.1757
lfemur -31.8333 16.9274 -11.9285
ltibia 55.4975
lfoot -20.7644 2.34207
ltoes -9.06998
